<svg id="Layer_1" data-name="Layer 1" xmlns="http://www.w3.org/2000/svg" viewBox="0 0 300 300"><defs><style>.cls-1{fill:#f2f1f7;}.cls-2{fill:#cf383c;}.cls-3{fill:#104974;}</style></defs><title>LOGO-HCMUE</title><path class="cls-1" d="M133.42,77.19c-2.66.12-8.13,5.27-8.13,5.27s-5-5.27-7.28-5.27H5.72l13.74,32.56v101h97c7.23,0,7.67,7.41,8.86,12.05,1.39-5.59,1.83-12.05,8.93-12.05H234V137.32l60.24-60.13Z"/><path class="cls-2" d="M69.83,149.49c-2.26,0-4.29-2.22-5.72-6.25a42.64,42.64,0,0,1-2-13.7,42.58,42.58,0,0,1,2-13.69c1.43-4,3.46-6.26,5.72-6.26s4.29,2.22,5.72,6.26a42.58,42.58,0,0,1,2,13.69,42.64,42.64,0,0,1-2,13.7c-1.43,4-3.46,6.25-5.72,6.25m0-37.56c-2.61,0-5.54,7.53-5.54,17.61s2.93,17.61,5.54,17.61,5.54-7.53,5.54-17.61-2.93-17.61-5.54-17.61"/><path class="cls-2" d="M87.11,139.52c-1.13,2-4.07,2.6-8.28,1.82A42.49,42.49,0,0,1,66,136.24a42.93,42.93,0,0,1-10.85-8.59c-2.78-3.25-3.69-6.13-2.56-8.08s4.07-2.61,8.28-1.83a42.8,42.8,0,0,1,12.87,5.11,42.52,42.52,0,0,1,10.85,8.58c2.78,3.26,3.69,6.13,2.56,8.09M54.58,120.74c-1.31,2.26,3.75,8.56,12.48,13.6s16.71,6.27,18,4-3.75-8.56-12.48-13.6-16.71-6.28-18-4"/><path class="cls-2" d="M87.11,119.57c1.13,2,.22,4.83-2.56,8.08a42.75,42.75,0,0,1-10.85,8.59,42.49,42.49,0,0,1-12.87,5.1c-4.21.78-7.14.14-8.28-1.82s-.22-4.83,2.56-8.08A42.73,42.73,0,0,1,66,122.84a43,43,0,0,1,12.87-5.1c4.21-.78,7.15-.13,8.28,1.83M54.58,138.35c1.31,2.26,9.29,1,18-4S86.39,123,85.08,120.73s-9.29-1-18,4-13.79,11.34-12.48,13.61"/><path class="cls-3" d="M99.83,114.31h3.37a5.59,5.59,0,0,1,1.76.21,2.89,2.89,0,0,1,1.39,1,5,5,0,0,1,.87,1.72,9.33,9.33,0,0,1,.29,2.5,8.21,8.21,0,0,1-.32,2.36,4.82,4.82,0,0,1-1,1.75,3.21,3.21,0,0,1-1.3.83,4.84,4.84,0,0,1-1.64.22H99.83v-4.62h-1v-1.34h1Zm1.84,1.79v2.83h2v1.34h-2v2.84h1.39a3.77,3.77,0,0,0,1.32-.17,1.56,1.56,0,0,0,.82-.8,5.86,5.86,0,0,0,.39-2.49,7.94,7.94,0,0,0-.16-1.84,2.65,2.65,0,0,0-.49-1,1.71,1.71,0,0,0-.84-.56,7.56,7.56,0,0,0-1.59-.11Z"/><path class="cls-3" d="M117.33,124.89h-2l-.8-2.4h-3.66l-.76,2.4h-2l3.57-10.58h2Zm-3.4-4.18-1.27-3.93-1.24,3.93Zm-2.12,5.05h1.76v2h-1.76Z"/><rect class="cls-3" x="118.25" y="114.31" width="1.85" height="10.58"/><polygon class="cls-3" points="125.43 124.89 125.43 114.31 127.28 114.31 127.28 118.47 130.9 118.47 130.9 114.31 132.75 114.31 132.75 124.89 130.9 124.89 130.9 120.27 127.28 120.27 127.28 124.89 125.43 124.89"/><path class="cls-3" d="M134.29,119.67a7.66,7.66,0,0,1,.42-2.72,5.12,5.12,0,0,1,.85-1.45,3.56,3.56,0,0,1,1.18-1,4.47,4.47,0,0,1,2-.42,4,4,0,0,1,3.24,1.45,7.32,7.32,0,0,1,0,8,4.35,4.35,0,0,1-6.47,0,6,6,0,0,1-1.21-4m1.9-.08a4.47,4.47,0,0,0,.72,2.73,2.26,2.26,0,0,0,3.65,0,4.53,4.53,0,0,0,.7-2.76,4.41,4.41,0,0,0-.69-2.72,2.19,2.19,0,0,0-1.83-.9,2.25,2.25,0,0,0-1.85.91,4.46,4.46,0,0,0-.7,2.73m1.59,6.17h1.76v2h-1.76Z"/><path class="cls-3" d="M150.48,121l1.8.66a4.79,4.79,0,0,1-1.38,2.57,3.56,3.56,0,0,1-2.43.84,3.69,3.69,0,0,1-3-1.44,6.06,6.06,0,0,1-1.18-3.93,6.41,6.41,0,0,1,1.18-4.11,3.83,3.83,0,0,1,3.11-1.46,3.54,3.54,0,0,1,2.73,1.14,4.43,4.43,0,0,1,.94,2l-1.83.5a2.36,2.36,0,0,0-.68-1.3,1.76,1.76,0,0,0-1.25-.48,2,2,0,0,0-1.65.85,4.53,4.53,0,0,0-.64,2.73,5,5,0,0,0,.62,2.87,2,2,0,0,0,1.63.85,1.72,1.72,0,0,0,1.27-.54,3.36,3.36,0,0,0,.76-1.71"/><path class="cls-2" d="M102.35,153.88l5.17.15a6.64,6.64,0,0,0,1.52,4.2,5,5,0,0,0,3.69,1.66,5.16,5.16,0,0,0,3.89-1.06,4.17,4.17,0,0,0,1.48-2.94,3.25,3.25,0,0,0-.41-1.92,4.21,4.21,0,0,0-1.79-1.46c-.6-.29-2-.83-4.1-1.61q-4.11-1.5-5.69-3.43a8.88,8.88,0,0,1-2-6.42,9.38,9.38,0,0,1,1.42-4.4,7.67,7.67,0,0,1,3.44-3,11.2,11.2,0,0,1,5.17-.78q4.86.29,7.16,3a10.33,10.33,0,0,1,2.15,7.18l-5.26-.17a5.78,5.78,0,0,0-1.21-3.55,4.61,4.61,0,0,0-3.24-1.25,5.3,5.3,0,0,0-3.65.92,2.47,2.47,0,0,0-1,1.89,2.58,2.58,0,0,0,.65,1.94q.93,1.07,4.66,2.37a22.1,22.1,0,0,1,5.5,2.58,8,8,0,0,1,2.65,3.34,10.81,10.81,0,0,1,.7,5,10.69,10.69,0,0,1-1.57,4.95A8.05,8.05,0,0,1,118,164.4a12.43,12.43,0,0,1-5.71.82q-4.92-.3-7.36-3.18t-2.62-8.16"/><path class="cls-2" d="M128.36,165.24V132.86H137a25.72,25.72,0,0,1,6.42.49,7.09,7.09,0,0,1,3.84,3.16,11.66,11.66,0,0,1,1.55,6.31,12.51,12.51,0,0,1-.89,5,8.69,8.69,0,0,1-2.27,3.2,7.28,7.28,0,0,1-2.8,1.53,25.54,25.54,0,0,1-5.6.46h-3.51v12.22Zm5.4-26.9v9.18h3A11.69,11.69,0,0,0,141,147a3.79,3.79,0,0,0,1.68-1.59,5,5,0,0,0,.61-2.52,4.71,4.71,0,0,0-.86-2.92,3.61,3.61,0,0,0-2.16-1.43,21.32,21.32,0,0,0-3.89-.22Z"/><path class="cls-2" d="M136.71,147.6h-3v-9.34h2.68a21.08,21.08,0,0,1,3.9.23,3.67,3.67,0,0,1,2.22,1.46,4.83,4.83,0,0,1,.87,3,5.15,5.15,0,0,1-.62,2.55,3.92,3.92,0,0,1-1.72,1.63,11.86,11.86,0,0,1-4.3.51m-2.88-.15h2.88a11.66,11.66,0,0,0,4.23-.5,3.66,3.66,0,0,0,1.65-1.56,5,5,0,0,0,.61-2.48,4.74,4.74,0,0,0-.84-2.87,3.59,3.59,0,0,0-2.13-1.41,22,22,0,0,0-3.87-.22h-2.53Z"/><polygon class="cls-3" points="74.07 184.62 74.07 175.84 71.25 175.84 71.25 174.66 78.05 174.66 78.05 175.84 75.21 175.84 75.21 184.62 74.07 184.62"/><path class="cls-3" d="M80.16,184.62v-10h3.23a5.42,5.42,0,0,1,1.69.19,2.25,2.25,0,0,1,1.18,1,3.16,3.16,0,0,1,.44,1.72,3.27,3.27,0,0,1-.72,2.19,3.11,3.11,0,0,1-2.49.85H81.3v4.05Zm1.14-5.23h2.22a2.22,2.22,0,0,0,1.53-.45,1.77,1.77,0,0,0,.48-1.36,2,2,0,0,0-.24-1,1.28,1.28,0,0,0-.57-.58,3.4,3.4,0,0,0-1.23-.16H81.3Z"/><rect class="cls-3" x="87.78" y="183.23" width="1.2" height="1.39"/><polygon class="cls-3" points="96.21 184.62 96.21 174.66 97.35 174.66 97.35 178.75 101.8 178.75 101.8 174.66 102.94 174.66 102.94 184.62 101.8 184.62 101.8 179.92 97.35 179.92 97.35 184.62 96.21 184.62"/><path class="cls-3" d="M105.52,179.77a5.81,5.81,0,0,1,1.18-3.92,3.8,3.8,0,0,1,5-.76,4.1,4.1,0,0,1,1.48,1.78,6.4,6.4,0,0,1,.55,2.77,5.76,5.76,0,0,1-1.06,3.61,3.75,3.75,0,0,1-6.09,0,5.62,5.62,0,0,1-1-3.44m1.17,0a4.34,4.34,0,0,0,.85,2.86,2.63,2.63,0,0,0,2.07,1,2.59,2.59,0,0,0,2.09-1,4.58,4.58,0,0,0,.85-3,5.75,5.75,0,0,0-.44-2.3,2.8,2.8,0,0,0-1-1.24,2.43,2.43,0,0,0-1.47-.47,2.6,2.6,0,0,0-2.11,1,5,5,0,0,0-.83,3.16m2.94-7L109,174h-1.19l1.26-1.91h1.12l1.31,1.91h-1.19Z"/><path class="cls-3" d="M126.53,181.13l1.14.33a4.51,4.51,0,0,1-1.32,2.5,3.4,3.4,0,0,1-2.3.83,3.62,3.62,0,0,1-2-.55,4,4,0,0,1-1.38-1.78,7.13,7.13,0,0,1-.54-2.89,6.49,6.49,0,0,1,.54-2.79,4,4,0,0,1,1.46-1.72,3.74,3.74,0,0,1,2-.58,3.32,3.32,0,0,1,2.14.73,4,4,0,0,1,1.25,2.17l-1.12.3c-.38-1.38-1.14-2.07-2.29-2.07a2.6,2.6,0,0,0-1.48.42,2.77,2.77,0,0,0-1,1.3,5.79,5.79,0,0,0-.37,2.24,5.18,5.18,0,0,0,.75,3.07,2.4,2.4,0,0,0,2,1,2.28,2.28,0,0,0,1.6-.63,3.42,3.42,0,0,0,.9-1.9"/><polygon class="cls-3" points="130.06 184.62 130.06 174.66 131.19 174.66 131.19 178.75 135.65 178.75 135.65 174.66 136.78 174.66 136.78 184.62 135.65 184.62 135.65 179.92 131.19 179.92 131.19 184.62 130.06 184.62"/><path class="cls-3" d="M139.82,174l.78-1.9H142l-1.28,1.9Zm.08.68H141v10H139.9Z"/><path class="cls-3" d="M148.27,184.62v-10H150l2,7.05.4,1.48c.1-.37.25-.9.46-1.6l2.06-6.93h1.52v10h-1.09v-8.33l-2.5,8.33h-1l-2.48-8.47v8.47Z"/><rect class="cls-3" x="159.47" y="174.66" width="1.14" height="9.96"/><polygon class="cls-3" points="163.53 184.62 163.53 174.66 164.69 174.66 169.2 182.5 169.2 174.66 170.28 174.66 170.28 184.62 169.12 184.62 164.62 176.78 164.62 184.62 163.53 184.62"/><polygon class="cls-3" points="173.18 184.62 173.18 174.66 174.31 174.66 174.31 178.75 178.77 178.75 178.77 174.66 179.9 174.66 179.9 184.62 178.77 184.62 178.77 179.92 174.31 179.92 174.31 184.62 173.18 184.62"/><polygon class="cls-3" points="111.67 172.07 110.39 170.17 111.77 170.17 112.54 172.07 111.67 172.07"/><polygon class="cls-3" points="189.68 123.8 238.42 123.8 252.87 109.35 204.13 109.36 189.68 123.8"/><path class="cls-3" d="M125.29,109.56s.56-11.16,6-11.16H263.76l14.55-14.55H132.57c-4.45.2-6.77,6.35-7.28,7.22,0,0-2.66-7.22-6.71-7.22H15.75l10.3,24.86v95.48h91.8c6.57,0,6.37,6.72,7.44,10.94,1.26-5.08,1.56-10.94,8-10.94h94.13V134.74H178.69l-14.55,14.55h48.74v40.37c-2.47,0-79.79,0-80.88,0-3.31-.06-5.69,4.74-6.71,7.21-1.12-2.77-3.55-7.21-6.71-7.21h-78V108.71L36.32,98.4h83.26c5.08,0,5.71,11.16,5.71,11.16"/></svg>