<svg id="Layer_1" data-name="Layer 1" xmlns="http://www.w3.org/2000/svg" xmlns:xlink="http://www.w3.org/1999/xlink" viewBox="0 0 270 270"><defs><style>.cls-1{fill:url(#linear-gradient);}.cls-2{fill:url(#linear-gradient-2);}</style><linearGradient id="linear-gradient" x1="15.26" y1="135" x2="125.68" y2="135" gradientUnits="userSpaceOnUse"><stop offset="0" stop-color="#264eec"/><stop offset="1" stop-color="#15acff"/></linearGradient><linearGradient id="linear-gradient-2" x1="101.62" y1="135" x2="254.74" y2="135" xlink:href="#linear-gradient"/></defs><path class="cls-1" d="M24.53,32.12H60.47V205.71h38.7a11.37,11.37,0,0,0,9.33-4.86l3.27-4.7,13.91.29v41.44H15.26v-9h1.12A17,17,0,0,0,32,219a21.28,21.28,0,0,0,1.73-8.47L33,57.92a6.66,6.66,0,0,0-4-6.09l-4.69-2Z"/><path class="cls-2" d="M101.62,32.12h153l.09,30.54H188.08L188,84.14h66.66v37.29H240.73l-2-1.54a27.08,27.08,0,0,0-16.21-5.32l-34.67-.1V216.86a6.67,6.67,0,0,0,.62,2.78,8.26,8.26,0,0,0,4.21,3.88l8.83,4v10.34H147.85V227.35l8.25-3.88a5.37,5.37,0,0,0,3.27-4.78V114.57H102.2V84h57.28V62.66H101.62Z"/></svg>