<svg id="Layer_1" data-name="Layer 1" xmlns="http://www.w3.org/2000/svg" xmlns:xlink="http://www.w3.org/1999/xlink" viewBox="0 0 270 270"><defs><style>.cls-1{fill:url(#linear-gradient);}.cls-2{fill:url(#linear-gradient-2);}.cls-3{fill:url(#linear-gradient-3);}</style><linearGradient id="linear-gradient" x1="4.99" y1="135" x2="265.01" y2="135" gradientUnits="userSpaceOnUse"><stop offset="0" stop-color="#264eec"/><stop offset="1" stop-color="#15acff"/></linearGradient><linearGradient id="linear-gradient-2" x1="31.86" y1="135" x2="126.97" y2="135" gradientUnits="userSpaceOnUse"><stop offset="0" stop-color="#264eec"/><stop offset="0" stop-color="#fff"/></linearGradient><linearGradient id="linear-gradient-3" x1="106.25" y1="135" x2="238.14" y2="135" xlink:href="#linear-gradient-2"/></defs><rect class="cls-1" x="4.99" y="4.99" width="260.01" height="260.01" rx="26.61"/><path class="cls-2" d="M39.85,46.38H70.8V195.91h33.34a9.8,9.8,0,0,0,8-4.19l2.82-4.05,12,.25v35.7H31.86v-7.74h1a14.58,14.58,0,0,0,13.47-8.57A18,18,0,0,0,47.78,200L47.11,68.61a5.76,5.76,0,0,0-3.46-5.25l-4-1.75Z"/><path class="cls-3" d="M106.25,46.38H238.06l.08,26.31H180.72l-.08,18.5h57.42v32.12h-12L224.34,122a23.25,23.25,0,0,0-14-4.59l-29.86-.09v88.2a5.78,5.78,0,0,0,.52,2.39,7.14,7.14,0,0,0,3.63,3.35l7.61,3.46v8.91H146.07v-9.08l7.1-3.33a4.63,4.63,0,0,0,2.82-4.12V117.4H106.75V91h49.33V72.69H106.25Z"/></svg>